<svg xmlns="http://www.w3.org/2000/svg" viewBox="0 0 427.4 427.41"><defs><style>.a{fill: #68926E;}</style></defs><path class="a" d="M456.34,321.86c58.6-88,34.63-207-53.54-265.89S195.65,20.73,137.06,108.74a190.3,190.3,0,0,0-31.75,116.61q-3.59,4.44-6.81,9.29A128.23,128.23,0,0,0,81.43,339.43a63.67,63.67,0,0,0-9.65,11.37,64.49,64.49,0,0,0,100.76,79.8A128.85,128.85,0,0,0,286.7,406.71,190.92,190.92,0,0,0,456.34,321.86ZM189.78,385.5a81.21,81.21,0,0,1-64.7-85.24,191.81,191.81,0,0,0,63.24,72.82c.75.52,1.52,1,2.28,1.55a190.51,190.51,0,0,0,21.18,12.27A80.31,80.31,0,0,1,189.78,385.5Zm27.34-50.68a143.74,143.74,0,0,1-61.49-92.21A81,81,0,0,1,273.12,351.2c-1.19,1.81-2.46,3.54-3.77,5.22A144,144,0,0,1,217.12,334.82Zm107.41,21.6a129.14,129.14,0,0,0-169-168.94A143,143,0,0,1,177,135.38c43.95-66,133.19-83.74,199.32-39.6s84.12,133.43,40.16,199.44A142.68,142.68,0,0,1,324.53,356.42Z" transform="translate(-61 -23.59)"/></svg>
