<svg id="Layer_1" data-name="Layer 1" xmlns="http://www.w3.org/2000/svg" viewBox="0 0 1148 1148"><defs><style>.cls-1{fill:#1e5434;}.cls-2{fill:none;}</style></defs><rect class="cls-1" width="1148" height="1148" rx="128"/><path d="M294,56a14,14,0,1,1-14,14A14,14,0,0,1,294,56Z"/><path d="M350,56a14,14,0,1,1-14,14A14,14,0,0,1,350,56Z"/><path d="M378,56a14,14,0,1,1-14,14A14,14,0,0,1,378,56Z"/><path d="M434,56a14,14,0,1,1-14,14A14,14,0,0,1,434,56Z"/><path d="M462,56a14,14,0,1,1-14,14A14,14,0,0,1,462,56Z"/><path d="M518,56a14,14,0,1,1-14,14A14,14,0,0,1,518,56Z"/><path d="M574,56a14,14,0,1,1-14,14A14,14,0,0,1,574,56Z"/><path d="M602,56a14,14,0,1,1-14,14A14,14,0,0,1,602,56Z"/><path d="M686,56a14,14,0,1,1-14,14A14,14,0,0,1,686,56Z"/><path d="M742,56a14,14,0,1,1-14,14A14,14,0,0,1,742,56Z"/><path d="M770,56a14,14,0,1,1-14,14A14,14,0,0,1,770,56Z"/><path d="M826,56a14,14,0,1,1-14,14A14,14,0,0,1,826,56Z"/><path d="M322,84a14,14,0,1,1-14,14A14,14,0,0,1,322,84Z"/><path d="M350,84a14,14,0,1,1-14,14A14,14,0,0,1,350,84Z"/><path d="M378,84a14,14,0,1,1-14,14A14,14,0,0,1,378,84Z"/><path d="M434,84a14,14,0,1,1-14,14A14,14,0,0,1,434,84Z"/><path d="M462,84a14,14,0,1,1-14,14A14,14,0,0,1,462,84Z"/><path d="M518,84a14,14,0,1,1-14,14A14,14,0,0,1,518,84Z"/><path d="M546,84a14,14,0,1,1-14,14A14,14,0,0,1,546,84Z"/><path d="M574,84a14,14,0,1,1-14,14A14,14,0,0,1,574,84Z"/><path d="M630,84a14,14,0,1,1-14,14A14,14,0,0,1,630,84Z"/><path d="M686,84a14,14,0,1,1-14,14A14,14,0,0,1,686,84Z"/><path d="M406,112a14,14,0,1,1-14,14A14,14,0,0,1,406,112Z"/><path d="M434,112a14,14,0,1,1-14,14A14,14,0,0,1,434,112Z"/><path d="M490,112a14,14,0,1,1-14,14A14,14,0,0,1,490,112Z"/><path d="M546,112a14,14,0,1,1-14,14A14,14,0,0,1,546,112Z"/><path d="M574,112a14,14,0,1,1-14,14A14,14,0,0,1,574,112Z"/><path d="M602,112a14,14,0,1,1-14,14A14,14,0,0,1,602,112Z"/><path d="M630,112a14,14,0,1,1-14,14A14,14,0,0,1,630,112Z"/><path d="M658,112a14,14,0,1,1-14,14A14,14,0,0,1,658,112Z"/><path d="M714,112a14,14,0,1,1-14,14A14,14,0,0,1,714,112Z"/><path d="M826,112a14,14,0,1,1-14,14A14,14,0,0,1,826,112Z"/><path d="M294,140a14,14,0,1,1-14,14A14,14,0,0,1,294,140Z"/><path d="M322,140a14,14,0,1,1-14,14A14,14,0,0,1,322,140Z"/><path d="M350,140a14,14,0,1,1-14,14A14,14,0,0,1,350,140Z"/><path d="M406,140a14,14,0,1,1-14,14A14,14,0,0,1,406,140Z"/><path d="M434,140a14,14,0,1,1-14,14A14,14,0,0,1,434,140Z"/><path d="M490,140a14,14,0,1,1-14,14A14,14,0,0,1,490,140Z"/><path d="M602,140a14,14,0,1,1-14,14A14,14,0,0,1,602,140Z"/><path d="M686,140a14,14,0,1,1-14,14A14,14,0,0,1,686,140Z"/><path d="M714,140a14,14,0,1,1-14,14A14,14,0,0,1,714,140Z"/><path d="M770,140a14,14,0,1,1-14,14A14,14,0,0,1,770,140Z"/><path d="M826,140a14,14,0,1,1-14,14A14,14,0,0,1,826,140Z"/><path d="M854,140a14,14,0,1,1-14,14A14,14,0,0,1,854,140Z"/><path d="M294,168a14,14,0,1,1-14,14A14,14,0,0,1,294,168Z"/><path d="M322,168a14,14,0,1,1-14,14A14,14,0,0,1,322,168Z"/><path d="M406,168a14,14,0,1,1-14,14A14,14,0,0,1,406,168Z"/><path d="M434,168a14,14,0,1,1-14,14A14,14,0,0,1,434,168Z"/><path d="M518,168a14,14,0,1,1-14,14A14,14,0,0,1,518,168Z"/><path d="M602,168a14,14,0,1,1-14,14A14,14,0,0,1,602,168Z"/><path d="M658,168a14,14,0,1,1-14,14A14,14,0,0,1,658,168Z"/><path d="M686,168a14,14,0,1,1-14,14A14,14,0,0,1,686,168Z"/><path d="M714,168a14,14,0,1,1-14,14A14,14,0,0,1,714,168Z"/><path d="M826,168a14,14,0,1,1-14,14A14,14,0,0,1,826,168Z"/><path d="M854,168a14,14,0,1,1-14,14A14,14,0,0,1,854,168Z"/><path d="M294,196a14,14,0,1,1-14,14A14,14,0,0,1,294,196Z"/><path d="M350,196a14,14,0,1,1-14,14A14,14,0,0,1,350,196Z"/><path d="M378,196a14,14,0,1,1-14,14A14,14,0,0,1,378,196Z"/><path d="M406,196a14,14,0,1,1-14,14A14,14,0,0,1,406,196Z"/><path d="M490,196a14,14,0,1,1-14,14A14,14,0,0,1,490,196Z"/><path d="M518,196a14,14,0,1,1-14,14A14,14,0,0,1,518,196Z"/><path d="M574,196a14,14,0,1,1-14,14A14,14,0,0,1,574,196Z"/><path d="M602,196a14,14,0,1,1-14,14A14,14,0,0,1,602,196Z"/><path d="M658,196a14,14,0,1,1-14,14A14,14,0,0,1,658,196Z"/><path d="M686,196a14,14,0,1,1-14,14A14,14,0,0,1,686,196Z"/><path d="M770,196a14,14,0,1,1-14,14A14,14,0,0,1,770,196Z"/><path d="M294,224a14,14,0,1,1-14,14A14,14,0,0,1,294,224Z"/><path d="M350,224a14,14,0,1,1-14,14A14,14,0,0,1,350,224Z"/><path d="M406,224a14,14,0,1,1-14,14A14,14,0,0,1,406,224Z"/><path d="M462,224a14,14,0,1,1-14,14A14,14,0,0,1,462,224Z"/><path d="M518,224a14,14,0,1,1-14,14A14,14,0,0,1,518,224Z"/><path d="M574,224a14,14,0,1,1-14,14A14,14,0,0,1,574,224Z"/><path d="M630,224a14,14,0,1,1-14,14A14,14,0,0,1,630,224Z"/><path d="M686,224a14,14,0,1,1-14,14A14,14,0,0,1,686,224Z"/><path d="M742,224a14,14,0,1,1-14,14A14,14,0,0,1,742,224Z"/><path d="M798,224a14,14,0,1,1-14,14A14,14,0,0,1,798,224Z"/><path d="M854,224a14,14,0,1,1-14,14A14,14,0,0,1,854,224Z"/><path d="M294,252a14,14,0,1,1-14,14A14,14,0,0,1,294,252Z"/><path d="M378,252a14,14,0,1,1-14,14A14,14,0,0,1,378,252Z"/><path d="M406,252a14,14,0,1,1-14,14A14,14,0,0,1,406,252Z"/><path d="M462,252a14,14,0,1,1-14,14A14,14,0,0,1,462,252Z"/><path d="M518,252a14,14,0,1,1-14,14A14,14,0,0,1,518,252Z"/><path d="M546,252a14,14,0,1,1-14,14A14,14,0,0,1,546,252Z"/><path d="M574,252a14,14,0,1,1-14,14A14,14,0,0,1,574,252Z"/><path d="M686,252a14,14,0,1,1-14,14A14,14,0,0,1,686,252Z"/><path d="M742,252a14,14,0,1,1-14,14A14,14,0,0,1,742,252Z"/><path d="M798,252a14,14,0,1,1-14,14A14,14,0,0,1,798,252Z"/><path d="M826,252a14,14,0,1,1-14,14A14,14,0,0,1,826,252Z"/><path d="M70,280a14,14,0,1,1-14,14A14,14,0,0,1,70,280Z"/><path d="M182,280a14,14,0,1,1-14,14A14,14,0,0,1,182,280Z"/><path d="M238,280a14,14,0,1,1-14,14A14,14,0,0,1,238,280Z"/><path d="M266,280a14,14,0,1,1-14,14A14,14,0,0,1,266,280Z"/><path d="M294,280a14,14,0,1,1-14,14A14,14,0,0,1,294,280Z"/><path d="M322,280a14,14,0,1,1-14,14A14,14,0,0,1,322,280Z"/><path d="M378,280a14,14,0,1,1-14,14A14,14,0,0,1,378,280Z"/><path d="M462,280a14,14,0,1,1-14,14A14,14,0,0,1,462,280Z"/><path d="M490,280a14,14,0,1,1-14,14A14,14,0,0,1,490,280Z"/><path d="M574,280a14,14,0,1,1-14,14A14,14,0,0,1,574,280Z"/><path d="M602,280a14,14,0,1,1-14,14A14,14,0,0,1,602,280Z"/><path d="M686,280a14,14,0,1,1-14,14A14,14,0,0,1,686,280Z"/><path d="M742,280a14,14,0,1,1-14,14A14,14,0,0,1,742,280Z"/><path d="M798,280a14,14,0,1,1-14,14A14,14,0,0,1,798,280Z"/><path d="M854,280a14,14,0,1,1-14,14A14,14,0,0,1,854,280Z"/><path d="M882,280a14,14,0,1,1-14,14A14,14,0,0,1,882,280Z"/><path d="M910,280a14,14,0,1,1-14,14A14,14,0,0,1,910,280Z"/><path d="M938,280a14,14,0,1,1-14,14A14,14,0,0,1,938,280Z"/><path d="M966,280a14,14,0,1,1-14,14A14,14,0,0,1,966,280Z"/><path d="M994,280a14,14,0,1,1-14,14A14,14,0,0,1,994,280Z"/><path d="M1078,280a14,14,0,1,1-14,14A14,14,0,0,1,1078,280Z"/><path d="M98,308a14,14,0,1,1-14,14A14,14,0,0,1,98,308Z"/><path d="M210,308a14,14,0,1,1-14,14A14,14,0,0,1,210,308Z"/><path d="M266,308a14,14,0,1,1-14,14A14,14,0,0,1,266,308Z"/><path d="M294,308a14,14,0,1,1-14,14A14,14,0,0,1,294,308Z"/><path d="M322,308a14,14,0,1,1-14,14A14,14,0,0,1,322,308Z"/><path d="M406,308a14,14,0,1,1-14,14A14,14,0,0,1,406,308Z"/><path d="M434,308a14,14,0,1,1-14,14A14,14,0,0,1,434,308Z"/><path d="M518,308a14,14,0,1,1-14,14A14,14,0,0,1,518,308Z"/><path d="M546,308a14,14,0,1,1-14,14A14,14,0,0,1,546,308Z"/><path d="M602,308a14,14,0,1,1-14,14A14,14,0,0,1,602,308Z"/><path d="M630,308a14,14,0,1,1-14,14A14,14,0,0,1,630,308Z"/><path d="M658,308a14,14,0,1,1-14,14A14,14,0,0,1,658,308Z"/><path d="M826,308a14,14,0,1,1-14,14A14,14,0,0,1,826,308Z"/><path d="M854,308a14,14,0,1,1-14,14A14,14,0,0,1,854,308Z"/><path d="M882,308a14,14,0,1,1-14,14A14,14,0,0,1,882,308Z"/><path d="M938,308a14,14,0,1,1-14,14A14,14,0,0,1,938,308Z"/><path d="M966,308a14,14,0,1,1-14,14A14,14,0,0,1,966,308Z"/><path d="M994,308a14,14,0,1,1-14,14A14,14,0,0,1,994,308Z"/><path d="M70,336a14,14,0,1,1-14,14A14,14,0,0,1,70,336Z"/><path d="M126,336a14,14,0,1,1-14,14A14,14,0,0,1,126,336Z"/><path d="M154,336a14,14,0,1,1-14,14A14,14,0,0,1,154,336Z"/><path d="M238,336a14,14,0,1,1-14,14A14,14,0,0,1,238,336Z"/><path d="M266,336a14,14,0,1,1-14,14A14,14,0,0,1,266,336Z"/><path d="M294,336a14,14,0,1,1-14,14A14,14,0,0,1,294,336Z"/><path d="M350,336a14,14,0,1,1-14,14A14,14,0,0,1,350,336Z"/><path d="M406,336a14,14,0,1,1-14,14A14,14,0,0,1,406,336Z"/><path d="M434,336a14,14,0,1,1-14,14A14,14,0,0,1,434,336Z"/><path d="M518,336a14,14,0,1,1-14,14A14,14,0,0,1,518,336Z"/><path d="M546,336a14,14,0,1,1-14,14A14,14,0,0,1,546,336Z"/><path d="M630,336a14,14,0,1,1-14,14A14,14,0,0,1,630,336Z"/><path d="M658,336a14,14,0,1,1-14,14A14,14,0,0,1,658,336Z"/><path d="M686,336a14,14,0,1,1-14,14A14,14,0,0,1,686,336Z"/><path d="M826,336a14,14,0,1,1-14,14A14,14,0,0,1,826,336Z"/><path d="M854,336a14,14,0,1,1-14,14A14,14,0,0,1,854,336Z"/><path d="M882,336a14,14,0,1,1-14,14A14,14,0,0,1,882,336Z"/><path d="M910,336a14,14,0,1,1-14,14A14,14,0,0,1,910,336Z"/><path d="M938,336a14,14,0,1,1-14,14A14,14,0,0,1,938,336Z"/><path d="M994,336a14,14,0,1,1-14,14A14,14,0,0,1,994,336Z"/><path d="M70,364a14,14,0,1,1-14,14A14,14,0,0,1,70,364Z"/><path d="M98,364a14,14,0,1,1-14,14A14,14,0,0,1,98,364Z"/><path d="M154,364a14,14,0,1,1-14,14A14,14,0,0,1,154,364Z"/><path d="M182,364a14,14,0,1,1-14,14A14,14,0,0,1,182,364Z"/><path d="M322,364a14,14,0,1,1-14,14A14,14,0,0,1,322,364Z"/><path d="M406,364a14,14,0,1,1-14,14A14,14,0,0,1,406,364Z"/><path d="M434,364a14,14,0,1,1-14,14A14,14,0,0,1,434,364Z"/><path d="M546,364a14,14,0,1,1-14,14A14,14,0,0,1,546,364Z"/><path d="M574,364a14,14,0,1,1-14,14A14,14,0,0,1,574,364Z"/><path d="M658,364a14,14,0,1,1-14,14A14,14,0,0,1,658,364Z"/><path d="M686,364a14,14,0,1,1-14,14A14,14,0,0,1,686,364Z"/><path d="M742,364a14,14,0,1,1-14,14A14,14,0,0,1,742,364Z"/><path d="M798,364a14,14,0,1,1-14,14A14,14,0,0,1,798,364Z"/><path d="M882,364a14,14,0,1,1-14,14A14,14,0,0,1,882,364Z"/><path d="M910,364a14,14,0,1,1-14,14A14,14,0,0,1,910,364Z"/><path d="M994,364a14,14,0,1,1-14,14A14,14,0,0,1,994,364Z"/><path d="M1022,364a14,14,0,1,1-14,14A14,14,0,0,1,1022,364Z"/><path d="M1050,364a14,14,0,1,1-14,14A14,14,0,0,1,1050,364Z"/><path d="M70,392a14,14,0,1,1-14,14A14,14,0,0,1,70,392Z"/><path d="M98,392a14,14,0,1,1-14,14A14,14,0,0,1,98,392Z"/><path d="M154,392a14,14,0,1,1-14,14A14,14,0,0,1,154,392Z"/><path d="M238,392a14,14,0,1,1-14,14A14,14,0,0,1,238,392Z"/><path d="M266,392a14,14,0,1,1-14,14A14,14,0,0,1,266,392Z"/><path d="M294,392a14,14,0,1,1-14,14A14,14,0,0,1,294,392Z"/><path d="M350,392a14,14,0,1,1-14,14A14,14,0,0,1,350,392Z"/><path d="M378,392a14,14,0,1,1-14,14A14,14,0,0,1,378,392Z"/><path d="M490,392a14,14,0,1,1-14,14A14,14,0,0,1,490,392Z"/><path d="M518,392a14,14,0,1,1-14,14A14,14,0,0,1,518,392Z"/><path d="M546,392a14,14,0,1,1-14,14A14,14,0,0,1,546,392Z"/><path d="M574,392a14,14,0,1,1-14,14A14,14,0,0,1,574,392Z"/><path d="M602,392a14,14,0,1,1-14,14A14,14,0,0,1,602,392Z"/><path d="M658,392a14,14,0,1,1-14,14A14,14,0,0,1,658,392Z"/><path d="M714,392a14,14,0,1,1-14,14A14,14,0,0,1,714,392Z"/><path d="M798,392a14,14,0,1,1-14,14A14,14,0,0,1,798,392Z"/><path d="M826,392a14,14,0,1,1-14,14A14,14,0,0,1,826,392Z"/><path d="M910,392a14,14,0,1,1-14,14A14,14,0,0,1,910,392Z"/><path d="M994,392a14,14,0,1,1-14,14A14,14,0,0,1,994,392Z"/><path d="M1022,392a14,14,0,1,1-14,14A14,14,0,0,1,1022,392Z"/><path d="M1050,392a14,14,0,1,1-14,14A14,14,0,0,1,1050,392Z"/><path d="M1078,392a14,14,0,1,1-14,14A14,14,0,0,1,1078,392Z"/><path d="M70,420a14,14,0,1,1-14,14A14,14,0,0,1,70,420Z"/><path d="M98,420a14,14,0,1,1-14,14A14,14,0,0,1,98,420Z"/><path d="M154,420a14,14,0,1,1-14,14A14,14,0,0,1,154,420Z"/><path d="M182,420a14,14,0,1,1-14,14A14,14,0,0,1,182,420Z"/><path d="M350,420a14,14,0,1,1-14,14A14,14,0,0,1,350,420Z"/><path d="M378,420a14,14,0,1,1-14,14A14,14,0,0,1,378,420Z"/><path d="M490,420a14,14,0,1,1-14,14A14,14,0,0,1,490,420Z"/><path d="M546,420a14,14,0,1,1-14,14A14,14,0,0,1,546,420Z"/><path d="M630,420a14,14,0,1,1-14,14A14,14,0,0,1,630,420Z"/><path d="M686,420a14,14,0,1,1-14,14A14,14,0,0,1,686,420Z"/><path d="M714,420a14,14,0,1,1-14,14A14,14,0,0,1,714,420Z"/><path d="M742,420a14,14,0,1,1-14,14A14,14,0,0,1,742,420Z"/><path d="M770,420a14,14,0,1,1-14,14A14,14,0,0,1,770,420Z"/><path d="M826,420a14,14,0,1,1-14,14A14,14,0,0,1,826,420Z"/><path d="M854,420a14,14,0,1,1-14,14A14,14,0,0,1,854,420Z"/><path d="M882,420a14,14,0,1,1-14,14A14,14,0,0,1,882,420Z"/><path d="M938,420a14,14,0,1,1-14,14A14,14,0,0,1,938,420Z"/><path d="M966,420a14,14,0,1,1-14,14A14,14,0,0,1,966,420Z"/><path d="M1022,420a14,14,0,1,1-14,14A14,14,0,0,1,1022,420Z"/><path d="M1050,420a14,14,0,1,1-14,14A14,14,0,0,1,1050,420Z"/><path d="M98,448a14,14,0,1,1-14,14A14,14,0,0,1,98,448Z"/><path d="M182,448a14,14,0,1,1-14,14A14,14,0,0,1,182,448Z"/><path d="M210,448a14,14,0,1,1-14,14A14,14,0,0,1,210,448Z"/><path d="M238,448a14,14,0,1,1-14,14A14,14,0,0,1,238,448Z"/><path d="M266,448a14,14,0,1,1-14,14A14,14,0,0,1,266,448Z"/><path d="M294,448a14,14,0,1,1-14,14A14,14,0,0,1,294,448Z"/><path d="M378,448a14,14,0,1,1-14,14A14,14,0,0,1,378,448Z"/><path d="M406,448a14,14,0,1,1-14,14A14,14,0,0,1,406,448Z"/><path d="M462,448a14,14,0,1,1-14,14A14,14,0,0,1,462,448Z"/><path d="M490,448a14,14,0,1,1-14,14A14,14,0,0,1,490,448Z"/><path d="M518,448a14,14,0,1,1-14,14A14,14,0,0,1,518,448Z"/><path d="M574,448a14,14,0,1,1-14,14A14,14,0,0,1,574,448Z"/><path d="M630,448a14,14,0,1,1-14,14A14,14,0,0,1,630,448Z"/><path d="M658,448a14,14,0,1,1-14,14A14,14,0,0,1,658,448Z"/><path d="M686,448a14,14,0,1,1-14,14A14,14,0,0,1,686,448Z"/><path d="M714,448a14,14,0,1,1-14,14A14,14,0,0,1,714,448Z"/><path d="M826,448a14,14,0,1,1-14,14A14,14,0,0,1,826,448Z"/><path d="M854,448a14,14,0,1,1-14,14A14,14,0,0,1,854,448Z"/><path d="M910,448a14,14,0,1,1-14,14A14,14,0,0,1,910,448Z"/><path d="M938,448a14,14,0,1,1-14,14A14,14,0,0,1,938,448Z"/><path d="M994,448a14,14,0,1,1-14,14A14,14,0,0,1,994,448Z"/><path d="M1022,448a14,14,0,1,1-14,14A14,14,0,0,1,1022,448Z"/><path d="M1050,448a14,14,0,1,1-14,14A14,14,0,0,1,1050,448Z"/><path d="M98,476a14,14,0,1,1-14,14A14,14,0,0,1,98,476Z"/><path d="M126,476a14,14,0,1,1-14,14A14,14,0,0,1,126,476Z"/><path d="M210,476a14,14,0,1,1-14,14A14,14,0,0,1,210,476Z"/><path d="M322,476a14,14,0,1,1-14,14A14,14,0,0,1,322,476Z"/><path d="M350,476a14,14,0,1,1-14,14A14,14,0,0,1,350,476Z"/><path d="M378,476a14,14,0,1,1-14,14A14,14,0,0,1,378,476Z"/><path d="M434,476a14,14,0,1,1-14,14A14,14,0,0,1,434,476Z"/><path d="M518,476a14,14,0,1,1-14,14A14,14,0,0,1,518,476Z"/><path d="M630,476a14,14,0,1,1-14,14A14,14,0,0,1,630,476Z"/><path d="M658,476a14,14,0,1,1-14,14A14,14,0,0,1,658,476Z"/><path d="M742,476a14,14,0,1,1-14,14A14,14,0,0,1,742,476Z"/><path d="M854,476a14,14,0,1,1-14,14A14,14,0,0,1,854,476Z"/><path d="M910,476a14,14,0,1,1-14,14A14,14,0,0,1,910,476Z"/><path d="M938,476a14,14,0,1,1-14,14A14,14,0,0,1,938,476Z"/><path d="M966,476a14,14,0,1,1-14,14A14,14,0,0,1,966,476Z"/><path d="M1022,476a14,14,0,1,1-14,14A14,14,0,0,1,1022,476Z"/><path d="M1050,476a14,14,0,1,1-14,14A14,14,0,0,1,1050,476Z"/><path d="M1078,476a14,14,0,1,1-14,14A14,14,0,0,1,1078,476Z"/><path d="M98,504a14,14,0,1,1-14,14A14,14,0,0,1,98,504Z"/><path d="M126,504a14,14,0,1,1-14,14A14,14,0,0,1,126,504Z"/><path d="M238,504a14,14,0,1,1-14,14A14,14,0,0,1,238,504Z"/><path d="M266,504a14,14,0,1,1-14,14A14,14,0,0,1,266,504Z"/><path d="M294,504a14,14,0,1,1-14,14A14,14,0,0,1,294,504Z"/><path d="M350,504a14,14,0,1,1-14,14A14,14,0,0,1,350,504Z"/><path d="M378,504a14,14,0,1,1-14,14A14,14,0,0,1,378,504Z"/><path d="M518,504a14,14,0,1,1-14,14A14,14,0,0,1,518,504Z"/><path d="M602,504a14,14,0,1,1-14,14A14,14,0,0,1,602,504Z"/><path d="M630,504a14,14,0,1,1-14,14A14,14,0,0,1,630,504Z"/><path d="M742,504a14,14,0,1,1-14,14A14,14,0,0,1,742,504Z"/><path d="M798,504a14,14,0,1,1-14,14A14,14,0,0,1,798,504Z"/><path d="M882,504a14,14,0,1,1-14,14A14,14,0,0,1,882,504Z"/><path d="M910,504a14,14,0,1,1-14,14A14,14,0,0,1,910,504Z"/><path d="M1022,504a14,14,0,1,1-14,14A14,14,0,0,1,1022,504Z"/><path d="M1050,504a14,14,0,1,1-14,14A14,14,0,0,1,1050,504Z"/><path d="M1078,504a14,14,0,1,1-14,14A14,14,0,0,1,1078,504Z"/><path d="M70,532a14,14,0,1,1-14,14A14,14,0,0,1,70,532Z"/><path d="M98,532a14,14,0,1,1-14,14A14,14,0,0,1,98,532Z"/><path d="M182,532a14,14,0,1,1-14,14A14,14,0,0,1,182,532Z"/><path d="M210,532a14,14,0,1,1-14,14A14,14,0,0,1,210,532Z"/><path d="M322,532a14,14,0,1,1-14,14A14,14,0,0,1,322,532Z"/><path d="M350,532a14,14,0,1,1-14,14A14,14,0,0,1,350,532Z"/><path d="M378,532a14,14,0,1,1-14,14A14,14,0,0,1,378,532Z"/><path d="M434,532a14,14,0,1,1-14,14A14,14,0,0,1,434,532Z"/><path d="M462,532a14,14,0,1,1-14,14A14,14,0,0,1,462,532Z"/><path d="M574,532a14,14,0,1,1-14,14A14,14,0,0,1,574,532Z"/><path d="M602,532a14,14,0,1,1-14,14A14,14,0,0,1,602,532Z"/><path d="M686,532a14,14,0,1,1-14,14A14,14,0,0,1,686,532Z"/><path d="M742,532a14,14,0,1,1-14,14A14,14,0,0,1,742,532Z"/><path d="M770,532a14,14,0,1,1-14,14A14,14,0,0,1,770,532Z"/><path d="M798,532a14,14,0,1,1-14,14A14,14,0,0,1,798,532Z"/><path d="M826,532a14,14,0,1,1-14,14A14,14,0,0,1,826,532Z"/><path d="M854,532a14,14,0,1,1-14,14A14,14,0,0,1,854,532Z"/><path d="M938,532a14,14,0,1,1-14,14A14,14,0,0,1,938,532Z"/><path d="M966,532a14,14,0,1,1-14,14A14,14,0,0,1,966,532Z"/><path d="M994,532a14,14,0,1,1-14,14A14,14,0,0,1,994,532Z"/><path d="M1050,532a14,14,0,1,1-14,14A14,14,0,0,1,1050,532Z"/><path d="M182,560a14,14,0,1,1-14,14A14,14,0,0,1,182,560Z"/><path d="M238,560a14,14,0,1,1-14,14A14,14,0,0,1,238,560Z"/><path d="M266,560a14,14,0,1,1-14,14A14,14,0,0,1,266,560Z"/><path d="M294,560a14,14,0,1,1-14,14A14,14,0,0,1,294,560Z"/><path d="M378,560a14,14,0,1,1-14,14A14,14,0,0,1,378,560Z"/><path d="M406,560a14,14,0,1,1-14,14A14,14,0,0,1,406,560Z"/><path d="M434,560a14,14,0,1,1-14,14A14,14,0,0,1,434,560Z"/><path d="M462,560a14,14,0,1,1-14,14A14,14,0,0,1,462,560Z"/><path d="M490,560a14,14,0,1,1-14,14A14,14,0,0,1,490,560Z"/><path d="M546,560a14,14,0,1,1-14,14A14,14,0,0,1,546,560Z"/><path d="M574,560a14,14,0,1,1-14,14A14,14,0,0,1,574,560Z"/><path d="M602,560a14,14,0,1,1-14,14A14,14,0,0,1,602,560Z"/><path d="M658,560a14,14,0,1,1-14,14A14,14,0,0,1,658,560Z"/><path d="M686,560a14,14,0,1,1-14,14A14,14,0,0,1,686,560Z"/><path d="M714,560a14,14,0,1,1-14,14A14,14,0,0,1,714,560Z"/><path d="M742,560a14,14,0,1,1-14,14A14,14,0,0,1,742,560Z"/><path d="M770,560a14,14,0,1,1-14,14A14,14,0,0,1,770,560Z"/><path d="M826,560a14,14,0,1,1-14,14A14,14,0,0,1,826,560Z"/><path d="M882,560a14,14,0,1,1-14,14A14,14,0,0,1,882,560Z"/><path d="M994,560a14,14,0,1,1-14,14A14,14,0,0,1,994,560Z"/><path d="M98,588a14,14,0,1,1-14,14A14,14,0,0,1,98,588Z"/><path d="M126,588a14,14,0,1,1-14,14A14,14,0,0,1,126,588Z"/><path d="M182,588a14,14,0,1,1-14,14A14,14,0,0,1,182,588Z"/><path d="M266,588a14,14,0,1,1-14,14A14,14,0,0,1,266,588Z"/><path d="M294,588a14,14,0,1,1-14,14A14,14,0,0,1,294,588Z"/><path d="M322,588a14,14,0,1,1-14,14A14,14,0,0,1,322,588Z"/><path d="M350,588a14,14,0,1,1-14,14A14,14,0,0,1,350,588Z"/><path d="M434,588a14,14,0,1,1-14,14A14,14,0,0,1,434,588Z"/><path d="M462,588a14,14,0,1,1-14,14A14,14,0,0,1,462,588Z"/><path d="M490,588a14,14,0,1,1-14,14A14,14,0,0,1,490,588Z"/><path d="M518,588a14,14,0,1,1-14,14A14,14,0,0,1,518,588Z"/><path d="M546,588a14,14,0,1,1-14,14A14,14,0,0,1,546,588Z"/><path d="M574,588a14,14,0,1,1-14,14A14,14,0,0,1,574,588Z"/><path d="M602,588a14,14,0,1,1-14,14A14,14,0,0,1,602,588Z"/><path d="M630,588a14,14,0,1,1-14,14A14,14,0,0,1,630,588Z"/><path d="M658,588a14,14,0,1,1-14,14A14,14,0,0,1,658,588Z"/><path d="M714,588a14,14,0,1,1-14,14A14,14,0,0,1,714,588Z"/><path d="M742,588a14,14,0,1,1-14,14A14,14,0,0,1,742,588Z"/><path d="M826,588a14,14,0,1,1-14,14A14,14,0,0,1,826,588Z"/><path d="M882,588a14,14,0,1,1-14,14A14,14,0,0,1,882,588Z"/><path d="M1022,588a14,14,0,1,1-14,14A14,14,0,0,1,1022,588Z"/><path d="M70,616a14,14,0,1,1-14,14A14,14,0,0,1,70,616Z"/><path d="M126,616a14,14,0,1,1-14,14A14,14,0,0,1,126,616Z"/><path d="M182,616a14,14,0,1,1-14,14A14,14,0,0,1,182,616Z"/><path d="M238,616a14,14,0,1,1-14,14A14,14,0,0,1,238,616Z"/><path d="M294,616a14,14,0,1,1-14,14A14,14,0,0,1,294,616Z"/><path d="M322,616a14,14,0,1,1-14,14A14,14,0,0,1,322,616Z"/><path d="M434,616a14,14,0,1,1-14,14A14,14,0,0,1,434,616Z"/><path d="M462,616a14,14,0,1,1-14,14A14,14,0,0,1,462,616Z"/><path d="M546,616a14,14,0,1,1-14,14A14,14,0,0,1,546,616Z"/><path d="M574,616a14,14,0,1,1-14,14A14,14,0,0,1,574,616Z"/><path d="M630,616a14,14,0,1,1-14,14A14,14,0,0,1,630,616Z"/><path d="M658,616a14,14,0,1,1-14,14A14,14,0,0,1,658,616Z"/><path d="M686,616a14,14,0,1,1-14,14A14,14,0,0,1,686,616Z"/><path d="M742,616a14,14,0,1,1-14,14A14,14,0,0,1,742,616Z"/><path d="M798,616a14,14,0,1,1-14,14A14,14,0,0,1,798,616Z"/><path d="M854,616a14,14,0,1,1-14,14A14,14,0,0,1,854,616Z"/><path d="M882,616a14,14,0,1,1-14,14A14,14,0,0,1,882,616Z"/><path d="M910,616a14,14,0,1,1-14,14A14,14,0,0,1,910,616Z"/><path d="M938,616a14,14,0,1,1-14,14A14,14,0,0,1,938,616Z"/><path d="M1022,616a14,14,0,1,1-14,14A14,14,0,0,1,1022,616Z"/><path d="M1050,616a14,14,0,1,1-14,14A14,14,0,0,1,1050,616Z"/><path d="M1078,616a14,14,0,1,1-14,14A14,14,0,0,1,1078,616Z"/><path d="M70,644a14,14,0,1,1-14,14A14,14,0,0,1,70,644Z"/><path d="M98,644a14,14,0,1,1-14,14A14,14,0,0,1,98,644Z"/><path d="M154,644a14,14,0,1,1-14,14A14,14,0,0,1,154,644Z"/><path d="M182,644a14,14,0,1,1-14,14A14,14,0,0,1,182,644Z"/><path d="M210,644a14,14,0,1,1-14,14A14,14,0,0,1,210,644Z"/><path d="M266,644a14,14,0,1,1-14,14A14,14,0,0,1,266,644Z"/><path d="M350,644a14,14,0,1,1-14,14A14,14,0,0,1,350,644Z"/><path d="M406,644a14,14,0,1,1-14,14A14,14,0,0,1,406,644Z"/><path d="M434,644a14,14,0,1,1-14,14A14,14,0,0,1,434,644Z"/><path d="M462,644a14,14,0,1,1-14,14A14,14,0,0,1,462,644Z"/><path d="M518,644a14,14,0,1,1-14,14A14,14,0,0,1,518,644Z"/><path d="M658,644a14,14,0,1,1-14,14A14,14,0,0,1,658,644Z"/><path d="M714,644a14,14,0,1,1-14,14A14,14,0,0,1,714,644Z"/><path d="M826,644a14,14,0,1,1-14,14A14,14,0,0,1,826,644Z"/><path d="M882,644a14,14,0,1,1-14,14A14,14,0,0,1,882,644Z"/><path d="M966,644a14,14,0,1,1-14,14A14,14,0,0,1,966,644Z"/><path d="M994,644a14,14,0,1,1-14,14A14,14,0,0,1,994,644Z"/><path d="M70,672a14,14,0,1,1-14,14A14,14,0,0,1,70,672Z"/><path d="M238,672a14,14,0,1,1-14,14A14,14,0,0,1,238,672Z"/><path d="M266,672a14,14,0,1,1-14,14A14,14,0,0,1,266,672Z"/><path d="M322,672a14,14,0,1,1-14,14A14,14,0,0,1,322,672Z"/><path d="M406,672a14,14,0,1,1-14,14A14,14,0,0,1,406,672Z"/><path d="M434,672a14,14,0,1,1-14,14A14,14,0,0,1,434,672Z"/><path d="M490,672a14,14,0,1,1-14,14A14,14,0,0,1,490,672Z"/><path d="M546,672a14,14,0,1,1-14,14A14,14,0,0,1,546,672Z"/><path d="M630,672a14,14,0,1,1-14,14A14,14,0,0,1,630,672Z"/><path d="M714,672a14,14,0,1,1-14,14A14,14,0,0,1,714,672Z"/><path d="M770,672a14,14,0,1,1-14,14A14,14,0,0,1,770,672Z"/><path d="M798,672a14,14,0,1,1-14,14A14,14,0,0,1,798,672Z"/><path d="M826,672a14,14,0,1,1-14,14A14,14,0,0,1,826,672Z"/><path d="M882,672a14,14,0,1,1-14,14A14,14,0,0,1,882,672Z"/><path d="M938,672a14,14,0,1,1-14,14A14,14,0,0,1,938,672Z"/><path d="M1022,672a14,14,0,1,1-14,14A14,14,0,0,1,1022,672Z"/><path d="M70,700a14,14,0,1,1-14,14A14,14,0,0,1,70,700Z"/><path d="M98,700a14,14,0,1,1-14,14A14,14,0,0,1,98,700Z"/><path d="M126,700a14,14,0,1,1-14,14A14,14,0,0,1,126,700Z"/><path d="M154,700a14,14,0,1,1-14,14A14,14,0,0,1,154,700Z"/><path d="M210,700a14,14,0,1,1-14,14A14,14,0,0,1,210,700Z"/><path d="M266,700a14,14,0,1,1-14,14A14,14,0,0,1,266,700Z"/><path d="M322,700a14,14,0,1,1-14,14A14,14,0,0,1,322,700Z"/><path d="M350,700a14,14,0,1,1-14,14A14,14,0,0,1,350,700Z"/><path d="M378,700a14,14,0,1,1-14,14A14,14,0,0,1,378,700Z"/><path d="M406,700a14,14,0,1,1-14,14A14,14,0,0,1,406,700Z"/><path d="M546,700a14,14,0,1,1-14,14A14,14,0,0,1,546,700Z"/><path d="M574,700a14,14,0,1,1-14,14A14,14,0,0,1,574,700Z"/><path d="M686,700a14,14,0,1,1-14,14A14,14,0,0,1,686,700Z"/><path d="M714,700a14,14,0,1,1-14,14A14,14,0,0,1,714,700Z"/><path d="M854,700a14,14,0,1,1-14,14A14,14,0,0,1,854,700Z"/><path d="M938,700a14,14,0,1,1-14,14A14,14,0,0,1,938,700Z"/><path d="M1022,700a14,14,0,1,1-14,14A14,14,0,0,1,1022,700Z"/><path d="M1078,700a14,14,0,1,1-14,14A14,14,0,0,1,1078,700Z"/><path d="M98,728a14,14,0,1,1-14,14A14,14,0,0,1,98,728Z"/><path d="M126,728a14,14,0,1,1-14,14A14,14,0,0,1,126,728Z"/><path d="M154,728a14,14,0,1,1-14,14A14,14,0,0,1,154,728Z"/><path d="M182,728a14,14,0,1,1-14,14A14,14,0,0,1,182,728Z"/><path d="M210,728a14,14,0,1,1-14,14A14,14,0,0,1,210,728Z"/><path d="M238,728a14,14,0,1,1-14,14A14,14,0,0,1,238,728Z"/><path d="M266,728a14,14,0,1,1-14,14A14,14,0,0,1,266,728Z"/><path d="M294,728a14,14,0,1,1-14,14A14,14,0,0,1,294,728Z"/><path d="M350,728a14,14,0,1,1-14,14A14,14,0,0,1,350,728Z"/><path d="M462,728a14,14,0,1,1-14,14A14,14,0,0,1,462,728Z"/><path d="M574,728a14,14,0,1,1-14,14A14,14,0,0,1,574,728Z"/><path d="M686,728a14,14,0,1,1-14,14A14,14,0,0,1,686,728Z"/><path d="M714,728a14,14,0,1,1-14,14A14,14,0,0,1,714,728Z"/><path d="M798,728a14,14,0,1,1-14,14A14,14,0,0,1,798,728Z"/><path d="M854,728a14,14,0,1,1-14,14A14,14,0,0,1,854,728Z"/><path d="M882,728a14,14,0,1,1-14,14A14,14,0,0,1,882,728Z"/><path d="M910,728a14,14,0,1,1-14,14A14,14,0,0,1,910,728Z"/><path d="M994,728a14,14,0,1,1-14,14A14,14,0,0,1,994,728Z"/><path d="M1022,728a14,14,0,1,1-14,14A14,14,0,0,1,1022,728Z"/><path d="M1050,728a14,14,0,1,1-14,14A14,14,0,0,1,1050,728Z"/><path d="M1078,728a14,14,0,1,1-14,14A14,14,0,0,1,1078,728Z"/><path d="M70,756a14,14,0,1,1-14,14A14,14,0,0,1,70,756Z"/><path d="M322,756a14,14,0,1,1-14,14A14,14,0,0,1,322,756Z"/><path d="M518,756a14,14,0,1,1-14,14A14,14,0,0,1,518,756Z"/><path d="M602,756a14,14,0,1,1-14,14A14,14,0,0,1,602,756Z"/><path d="M630,756a14,14,0,1,1-14,14A14,14,0,0,1,630,756Z"/><path d="M714,756a14,14,0,1,1-14,14A14,14,0,0,1,714,756Z"/><path d="M742,756a14,14,0,1,1-14,14A14,14,0,0,1,742,756Z"/><path d="M770,756a14,14,0,1,1-14,14A14,14,0,0,1,770,756Z"/><path d="M826,756a14,14,0,1,1-14,14A14,14,0,0,1,826,756Z"/><path d="M854,756a14,14,0,1,1-14,14A14,14,0,0,1,854,756Z"/><path d="M938,756a14,14,0,1,1-14,14A14,14,0,0,1,938,756Z"/><path d="M966,756a14,14,0,1,1-14,14A14,14,0,0,1,966,756Z"/><path d="M154,784a14,14,0,1,1-14,14A14,14,0,0,1,154,784Z"/><path d="M210,784a14,14,0,1,1-14,14A14,14,0,0,1,210,784Z"/><path d="M238,784a14,14,0,1,1-14,14A14,14,0,0,1,238,784Z"/><path d="M266,784a14,14,0,1,1-14,14A14,14,0,0,1,266,784Z"/><path d="M294,784a14,14,0,1,1-14,14A14,14,0,0,1,294,784Z"/><path d="M322,784a14,14,0,1,1-14,14A14,14,0,0,1,322,784Z"/><path d="M378,784a14,14,0,1,1-14,14A14,14,0,0,1,378,784Z"/><path d="M434,784a14,14,0,1,1-14,14A14,14,0,0,1,434,784Z"/><path d="M518,784a14,14,0,1,1-14,14A14,14,0,0,1,518,784Z"/><path d="M546,784a14,14,0,1,1-14,14A14,14,0,0,1,546,784Z"/><path d="M630,784a14,14,0,1,1-14,14A14,14,0,0,1,630,784Z"/><path d="M658,784a14,14,0,1,1-14,14A14,14,0,0,1,658,784Z"/><path d="M714,784a14,14,0,1,1-14,14A14,14,0,0,1,714,784Z"/><path d="M770,784a14,14,0,1,1-14,14A14,14,0,0,1,770,784Z"/><path d="M798,784a14,14,0,1,1-14,14A14,14,0,0,1,798,784Z"/><path d="M826,784a14,14,0,1,1-14,14A14,14,0,0,1,826,784Z"/><path d="M882,784a14,14,0,1,1-14,14A14,14,0,0,1,882,784Z"/><path d="M910,784a14,14,0,1,1-14,14A14,14,0,0,1,910,784Z"/><path d="M938,784a14,14,0,1,1-14,14A14,14,0,0,1,938,784Z"/><path d="M154,812a14,14,0,1,1-14,14A14,14,0,0,1,154,812Z"/><path d="M182,812a14,14,0,1,1-14,14A14,14,0,0,1,182,812Z"/><path d="M322,812a14,14,0,1,1-14,14A14,14,0,0,1,322,812Z"/><path d="M378,812a14,14,0,1,1-14,14A14,14,0,0,1,378,812Z"/><path d="M406,812a14,14,0,1,1-14,14A14,14,0,0,1,406,812Z"/><path d="M434,812a14,14,0,1,1-14,14A14,14,0,0,1,434,812Z"/><path d="M462,812a14,14,0,1,1-14,14A14,14,0,0,1,462,812Z"/><path d="M546,812a14,14,0,1,1-14,14A14,14,0,0,1,546,812Z"/><path d="M574,812a14,14,0,1,1-14,14A14,14,0,0,1,574,812Z"/><path d="M658,812a14,14,0,1,1-14,14A14,14,0,0,1,658,812Z"/><path d="M714,812a14,14,0,1,1-14,14A14,14,0,0,1,714,812Z"/><path d="M882,812a14,14,0,1,1-14,14A14,14,0,0,1,882,812Z"/><path d="M1022,812a14,14,0,1,1-14,14A14,14,0,0,1,1022,812Z"/><path d="M70,840a14,14,0,1,1-14,14A14,14,0,0,1,70,840Z"/><path d="M98,840a14,14,0,1,1-14,14A14,14,0,0,1,98,840Z"/><path d="M182,840a14,14,0,1,1-14,14A14,14,0,0,1,182,840Z"/><path d="M210,840a14,14,0,1,1-14,14A14,14,0,0,1,210,840Z"/><path d="M238,840a14,14,0,1,1-14,14A14,14,0,0,1,238,840Z"/><path d="M266,840a14,14,0,1,1-14,14A14,14,0,0,1,266,840Z"/><path d="M294,840a14,14,0,1,1-14,14A14,14,0,0,1,294,840Z"/><path d="M322,840a14,14,0,1,1-14,14A14,14,0,0,1,322,840Z"/><path d="M434,840a14,14,0,1,1-14,14A14,14,0,0,1,434,840Z"/><path d="M490,840a14,14,0,1,1-14,14A14,14,0,0,1,490,840Z"/><path d="M518,840a14,14,0,1,1-14,14A14,14,0,0,1,518,840Z"/><path d="M546,840a14,14,0,1,1-14,14A14,14,0,0,1,546,840Z"/><path d="M574,840a14,14,0,1,1-14,14A14,14,0,0,1,574,840Z"/><path d="M602,840a14,14,0,1,1-14,14A14,14,0,0,1,602,840Z"/><path d="M658,840a14,14,0,1,1-14,14A14,14,0,0,1,658,840Z"/><path d="M798,840a14,14,0,1,1-14,14A14,14,0,0,1,798,840Z"/><path d="M826,840a14,14,0,1,1-14,14A14,14,0,0,1,826,840Z"/><path d="M854,840a14,14,0,1,1-14,14A14,14,0,0,1,854,840Z"/><path d="M882,840a14,14,0,1,1-14,14A14,14,0,0,1,882,840Z"/><path d="M910,840a14,14,0,1,1-14,14A14,14,0,0,1,910,840Z"/><path d="M938,840a14,14,0,1,1-14,14A14,14,0,0,1,938,840Z"/><path d="M966,840a14,14,0,1,1-14,14A14,14,0,0,1,966,840Z"/><path d="M1022,840a14,14,0,1,1-14,14A14,14,0,0,1,1022,840Z"/><path d="M1078,840a14,14,0,1,1-14,14A14,14,0,0,1,1078,840Z"/><path d="M294,868a14,14,0,1,1-14,14A14,14,0,0,1,294,868Z"/><path d="M350,868a14,14,0,1,1-14,14A14,14,0,0,1,350,868Z"/><path d="M406,868a14,14,0,1,1-14,14A14,14,0,0,1,406,868Z"/><path d="M434,868a14,14,0,1,1-14,14A14,14,0,0,1,434,868Z"/><path d="M490,868a14,14,0,1,1-14,14A14,14,0,0,1,490,868Z"/><path d="M546,868a14,14,0,1,1-14,14A14,14,0,0,1,546,868Z"/><path d="M630,868a14,14,0,1,1-14,14A14,14,0,0,1,630,868Z"/><path d="M686,868a14,14,0,1,1-14,14A14,14,0,0,1,686,868Z"/><path d="M714,868a14,14,0,1,1-14,14A14,14,0,0,1,714,868Z"/><path d="M742,868a14,14,0,1,1-14,14A14,14,0,0,1,742,868Z"/><path d="M770,868a14,14,0,1,1-14,14A14,14,0,0,1,770,868Z"/><path d="M826,868a14,14,0,1,1-14,14A14,14,0,0,1,826,868Z"/><path d="M854,868a14,14,0,1,1-14,14A14,14,0,0,1,854,868Z"/><path d="M966,868a14,14,0,1,1-14,14A14,14,0,0,1,966,868Z"/><path d="M1050,868a14,14,0,1,1-14,14A14,14,0,0,1,1050,868Z"/><path d="M294,896a14,14,0,1,1-14,14A14,14,0,0,1,294,896Z"/><path d="M322,896a14,14,0,1,1-14,14A14,14,0,0,1,322,896Z"/><path d="M350,896a14,14,0,1,1-14,14A14,14,0,0,1,350,896Z"/><path d="M378,896a14,14,0,1,1-14,14A14,14,0,0,1,378,896Z"/><path d="M434,896a14,14,0,1,1-14,14A14,14,0,0,1,434,896Z"/><path d="M490,896a14,14,0,1,1-14,14A14,14,0,0,1,490,896Z"/><path d="M518,896a14,14,0,1,1-14,14A14,14,0,0,1,518,896Z"/><path d="M574,896a14,14,0,1,1-14,14A14,14,0,0,1,574,896Z"/><path d="M630,896a14,14,0,1,1-14,14A14,14,0,0,1,630,896Z"/><path d="M658,896a14,14,0,1,1-14,14A14,14,0,0,1,658,896Z"/><path d="M686,896a14,14,0,1,1-14,14A14,14,0,0,1,686,896Z"/><path d="M714,896a14,14,0,1,1-14,14A14,14,0,0,1,714,896Z"/><path d="M742,896a14,14,0,1,1-14,14A14,14,0,0,1,742,896Z"/><path d="M854,896a14,14,0,1,1-14,14A14,14,0,0,1,854,896Z"/><path d="M910,896a14,14,0,1,1-14,14A14,14,0,0,1,910,896Z"/><path d="M966,896a14,14,0,1,1-14,14A14,14,0,0,1,966,896Z"/><path d="M994,896a14,14,0,1,1-14,14A14,14,0,0,1,994,896Z"/><path d="M1050,896a14,14,0,1,1-14,14A14,14,0,0,1,1050,896Z"/><path d="M406,924a14,14,0,1,1-14,14A14,14,0,0,1,406,924Z"/><path d="M434,924a14,14,0,1,1-14,14A14,14,0,0,1,434,924Z"/><path d="M490,924a14,14,0,1,1-14,14A14,14,0,0,1,490,924Z"/><path d="M602,924a14,14,0,1,1-14,14A14,14,0,0,1,602,924Z"/><path d="M630,924a14,14,0,1,1-14,14A14,14,0,0,1,630,924Z"/><path d="M658,924a14,14,0,1,1-14,14A14,14,0,0,1,658,924Z"/><path d="M714,924a14,14,0,1,1-14,14A14,14,0,0,1,714,924Z"/><path d="M742,924a14,14,0,1,1-14,14A14,14,0,0,1,742,924Z"/><path d="M826,924a14,14,0,1,1-14,14A14,14,0,0,1,826,924Z"/><path d="M854,924a14,14,0,1,1-14,14A14,14,0,0,1,854,924Z"/><path d="M966,924a14,14,0,1,1-14,14A14,14,0,0,1,966,924Z"/><path d="M1022,924a14,14,0,1,1-14,14A14,14,0,0,1,1022,924Z"/><path d="M294,952a14,14,0,1,1-14,14A14,14,0,0,1,294,952Z"/><path d="M322,952a14,14,0,1,1-14,14A14,14,0,0,1,322,952Z"/><path d="M462,952a14,14,0,1,1-14,14A14,14,0,0,1,462,952Z"/><path d="M518,952a14,14,0,1,1-14,14A14,14,0,0,1,518,952Z"/><path d="M602,952a14,14,0,1,1-14,14A14,14,0,0,1,602,952Z"/><path d="M630,952a14,14,0,1,1-14,14A14,14,0,0,1,630,952Z"/><path d="M798,952a14,14,0,1,1-14,14A14,14,0,0,1,798,952Z"/><path d="M854,952a14,14,0,1,1-14,14A14,14,0,0,1,854,952Z"/><path d="M882,952a14,14,0,1,1-14,14A14,14,0,0,1,882,952Z"/><path d="M910,952a14,14,0,1,1-14,14A14,14,0,0,1,910,952Z"/><path d="M938,952a14,14,0,1,1-14,14A14,14,0,0,1,938,952Z"/><path d="M966,952a14,14,0,1,1-14,14A14,14,0,0,1,966,952Z"/><path d="M1022,952a14,14,0,1,1-14,14A14,14,0,0,1,1022,952Z"/><path d="M1078,952a14,14,0,1,1-14,14A14,14,0,0,1,1078,952Z"/><path d="M322,980a14,14,0,1,1-14,14A14,14,0,0,1,322,980Z"/><path d="M350,980a14,14,0,1,1-14,14A14,14,0,0,1,350,980Z"/><path d="M378,980a14,14,0,1,1-14,14A14,14,0,0,1,378,980Z"/><path d="M406,980a14,14,0,1,1-14,14A14,14,0,0,1,406,980Z"/><path d="M462,980a14,14,0,1,1-14,14A14,14,0,0,1,462,980Z"/><path d="M574,980a14,14,0,1,1-14,14A14,14,0,0,1,574,980Z"/><path d="M602,980a14,14,0,1,1-14,14A14,14,0,0,1,602,980Z"/><path d="M686,980a14,14,0,1,1-14,14A14,14,0,0,1,686,980Z"/><path d="M714,980a14,14,0,1,1-14,14A14,14,0,0,1,714,980Z"/><path d="M742,980a14,14,0,1,1-14,14A14,14,0,0,1,742,980Z"/><path d="M770,980a14,14,0,1,1-14,14A14,14,0,0,1,770,980Z"/><path d="M826,980a14,14,0,1,1-14,14A14,14,0,0,1,826,980Z"/><path d="M854,980a14,14,0,1,1-14,14A14,14,0,0,1,854,980Z"/><path d="M910,980a14,14,0,1,1-14,14A14,14,0,0,1,910,980Z"/><path d="M1078,980a14,14,0,1,1-14,14A14,14,0,0,1,1078,980Z"/><path d="M322,1008a14,14,0,1,1-14,14A14,14,0,0,1,322,1008Z"/><path d="M350,1008a14,14,0,1,1-14,14A14,14,0,0,1,350,1008Z"/><path d="M406,1008a14,14,0,1,1-14,14A14,14,0,0,1,406,1008Z"/><path d="M434,1008a14,14,0,1,1-14,14A14,14,0,0,1,434,1008Z"/><path d="M490,1008a14,14,0,1,1-14,14A14,14,0,0,1,490,1008Z"/><path d="M574,1008a14,14,0,1,1-14,14A14,14,0,0,1,574,1008Z"/><path d="M602,1008a14,14,0,1,1-14,14A14,14,0,0,1,602,1008Z"/><path d="M658,1008a14,14,0,1,1-14,14A14,14,0,0,1,658,1008Z"/><path d="M686,1008a14,14,0,1,1-14,14A14,14,0,0,1,686,1008Z"/><path d="M714,1008a14,14,0,1,1-14,14A14,14,0,0,1,714,1008Z"/><path d="M798,1008a14,14,0,1,1-14,14A14,14,0,0,1,798,1008Z"/><path d="M826,1008a14,14,0,1,1-14,14A14,14,0,0,1,826,1008Z"/><path d="M854,1008a14,14,0,1,1-14,14A14,14,0,0,1,854,1008Z"/><path d="M910,1008a14,14,0,1,1-14,14A14,14,0,0,1,910,1008Z"/><path d="M938,1008a14,14,0,1,1-14,14A14,14,0,0,1,938,1008Z"/><path d="M1022,1008a14,14,0,1,1-14,14A14,14,0,0,1,1022,1008Z"/><path d="M350,1036a14,14,0,1,1-14,14A14,14,0,0,1,350,1036Z"/><path d="M378,1036a14,14,0,1,1-14,14A14,14,0,0,1,378,1036Z"/><path d="M490,1036a14,14,0,1,1-14,14A14,14,0,0,1,490,1036Z"/><path d="M518,1036a14,14,0,1,1-14,14A14,14,0,0,1,518,1036Z"/><path d="M546,1036a14,14,0,1,1-14,14A14,14,0,0,1,546,1036Z"/><path d="M574,1036a14,14,0,1,1-14,14A14,14,0,0,1,574,1036Z"/><path d="M602,1036a14,14,0,1,1-14,14A14,14,0,0,1,602,1036Z"/><path d="M630,1036a14,14,0,1,1-14,14A14,14,0,0,1,630,1036Z"/><path d="M658,1036a14,14,0,1,1-14,14A14,14,0,0,1,658,1036Z"/><path d="M686,1036a14,14,0,1,1-14,14A14,14,0,0,1,686,1036Z"/><path d="M714,1036a14,14,0,1,1-14,14A14,14,0,0,1,714,1036Z"/><path d="M826,1036a14,14,0,1,1-14,14A14,14,0,0,1,826,1036Z"/><path d="M910,1036a14,14,0,1,1-14,14A14,14,0,0,1,910,1036Z"/><path d="M938,1036a14,14,0,1,1-14,14A14,14,0,0,1,938,1036Z"/><path d="M1022,1036a14,14,0,1,1-14,14A14,14,0,0,1,1022,1036Z"/><path d="M1050,1036a14,14,0,1,1-14,14A14,14,0,0,1,1050,1036Z"/><path d="M294,1064a14,14,0,1,1-14,14A14,14,0,0,1,294,1064Z"/><path d="M322,1064a14,14,0,1,1-14,14A14,14,0,0,1,322,1064Z"/><path d="M378,1064a14,14,0,1,1-14,14A14,14,0,0,1,378,1064Z"/><path d="M406,1064a14,14,0,1,1-14,14A14,14,0,0,1,406,1064Z"/><path d="M518,1064a14,14,0,1,1-14,14A14,14,0,0,1,518,1064Z"/><path d="M546,1064a14,14,0,1,1-14,14A14,14,0,0,1,546,1064Z"/><path d="M574,1064a14,14,0,1,1-14,14A14,14,0,0,1,574,1064Z"/><path d="M658,1064a14,14,0,1,1-14,14A14,14,0,0,1,658,1064Z"/><path d="M798,1064a14,14,0,1,1-14,14A14,14,0,0,1,798,1064Z"/><path d="M826,1064a14,14,0,1,1-14,14A14,14,0,0,1,826,1064Z"/><path d="M882,1064a14,14,0,1,1-14,14A14,14,0,0,1,882,1064Z"/><path d="M910,1064a14,14,0,1,1-14,14A14,14,0,0,1,910,1064Z"/><path d="M966,1064a14,14,0,1,1-14,14A14,14,0,0,1,966,1064Z"/><path d="M1022,1064a14,14,0,1,1-14,14A14,14,0,0,1,1022,1064Z"/><path d="M1050,1064a14,14,0,1,1-14,14A14,14,0,0,1,1050,1064Z"/><path d="M1078,1064a14,14,0,1,1-14,14A14,14,0,0,1,1078,1064Z"/><path class="cls-2" d="M185.08,85.42H122.92a37.8,37.8,0,0,0-21.52,6.66,37.23,37.23,0,0,0-11.46,12.58,35.86,35.86,0,0,0-4.54,17.51v63.64c0,20.27,16.83,36.77,37.52,36.77h62.16c20.69,0,37.52-16.5,37.52-36.77V122.17C222.6,101.9,205.77,85.42,185.08,85.42Z"/><path d="M185.08,56H122.92a67,67,0,0,0-64.18,47.37A65.32,65.32,0,0,0,56,122.17v63.64C56,222.3,86,252,122.92,252h62.16C222,252,252,222.3,252,185.81V122.17C252,85.69,222,56,185.08,56ZM222.6,185.81c0,20.27-16.83,36.77-37.52,36.77H122.92c-20.69,0-37.52-16.5-37.52-36.77V122.17a36,36,0,0,1,4.53-17.51A37.26,37.26,0,0,1,101.4,92.08a37.77,37.77,0,0,1,21.51-6.66h62.17c20.69,0,37.52,16.48,37.52,36.75Z"/><path class="cls-2" d="M1025.08,85.42H962.92a37.8,37.8,0,0,0-21.52,6.66,37.23,37.23,0,0,0-11.46,12.58,35.86,35.86,0,0,0-4.54,17.51v63.64c0,20.27,16.83,36.77,37.52,36.77h62.16c20.69,0,37.52-16.5,37.52-36.77V122.17C1062.6,101.9,1045.77,85.42,1025.08,85.42Z"/><path d="M1025.08,56H962.92a67,67,0,0,0-64.18,47.37A65.32,65.32,0,0,0,896,122.17v63.64C896,222.3,926,252,962.92,252h62.16C1062,252,1092,222.3,1092,185.81V122.17C1092,85.69,1062,56,1025.08,56Zm37.52,129.79c0,20.27-16.83,36.77-37.52,36.77H962.92c-20.69,0-37.52-16.5-37.52-36.77V122.17a36,36,0,0,1,4.53-17.51A37.26,37.26,0,0,1,941.4,92.08a37.77,37.77,0,0,1,21.51-6.66h62.17c20.69,0,37.52,16.48,37.52,36.75Z"/><path class="cls-2" d="M185.08,925.42H122.92a37.8,37.8,0,0,0-21.52,6.66,37.23,37.23,0,0,0-11.46,12.58,35.86,35.86,0,0,0-4.54,17.51v63.64c0,20.27,16.83,36.77,37.52,36.77h62.16c20.69,0,37.52-16.5,37.52-36.77V962.17C222.6,941.9,205.77,925.42,185.08,925.42Z"/><path d="M185.08,896H122.92a67,67,0,0,0-64.18,47.37A65.32,65.32,0,0,0,56,962.17v63.64c0,36.49,30,66.17,66.92,66.17h62.16C222,1092,252,1062.3,252,1025.81V962.17C252,925.69,222,896,185.08,896Zm37.52,129.79c0,20.27-16.83,36.77-37.52,36.77H122.92c-20.69,0-37.52-16.5-37.52-36.77V962.17a36,36,0,0,1,4.53-17.51,37.26,37.26,0,0,1,11.47-12.58,37.77,37.77,0,0,1,21.51-6.66h62.17c20.69,0,37.52,16.48,37.52,36.75Z"/><path d="M135,196a22.78,22.78,0,0,1-23-22.52v-39a22.12,22.12,0,0,1,2.77-10.72,22.85,22.85,0,0,1,7-7.71A23.22,23.22,0,0,1,135,112H173a22.77,22.77,0,0,1,23,22.51v39A22.78,22.78,0,0,1,173,196H135Z"/><path d="M975,196a22.78,22.78,0,0,1-23-22.52v-39a22.12,22.12,0,0,1,2.77-10.72,22.85,22.85,0,0,1,7-7.71A23.22,23.22,0,0,1,975,112H1013a22.77,22.77,0,0,1,23,22.51v39A22.78,22.78,0,0,1,1013,196H975Z"/><path d="M135,1036a22.78,22.78,0,0,1-23-22.52v-39a22.12,22.12,0,0,1,2.77-10.72,22.85,22.85,0,0,1,7-7.71A23.22,23.22,0,0,1,135,952H173a22.77,22.77,0,0,1,23,22.51v39A22.78,22.78,0,0,1,173,1036H135Z"/></svg>